<svg width="63.000000" height="18.000000" viewBox="0 0 63 18" fill="none" xmlns="http://www.w3.org/2000/svg" xmlns:xlink="http://www.w3.org/1999/xlink">
	<defs>
		<clipPath id="clip49_13893">
			<rect id="Code" width="18.000000" height="18.000000" fill="white" fill-opacity="0"/>
		</clipPath>
	</defs>
	<path id="DevTeam" d="M24.59 9.35C24.59 11.62 23.34 13 21.12 13L18.88 13L18.88 5.72L21.22 5.72C23.34 5.72 24.59 7.09 24.59 9.35ZM38.83 6.5L36.55 6.5L36.55 5.72L42 5.72L42 6.5L39.71 6.5L39.71 13L38.83 13L38.83 6.5ZM19.76 6.5L19.76 12.21L21.06 12.21C22.87 12.21 23.73 11.12 23.73 9.35C23.73 7.58 22.87 6.5 21.16 6.5L19.76 6.5ZM30.41 11.73C30.15 12.56 29.35 13.11 28.24 13.11C26.66 13.11 25.69 11.99 25.69 10.31C25.69 8.63 26.67 7.47 28.15 7.47C29.29 7.47 30.5 8.17 30.5 10.2L30.5 10.55L26.54 10.55C26.57 11.72 27.25 12.36 28.24 12.36C28.89 12.36 29.39 12.07 29.6 11.5L30.41 11.73ZM46.92 11.73C46.66 12.56 45.85 13.11 44.74 13.11C43.17 13.11 42.2 11.99 42.2 10.31C42.2 8.63 43.18 7.47 44.66 7.47C45.79 7.47 47 8.17 47 10.2L47 10.55L43.04 10.55C43.08 11.72 43.76 12.36 44.74 12.36C45.4 12.36 45.89 12.07 46.1 11.5L46.92 11.73ZM51.5 12.26C51.33 12.61 50.83 13.12 49.89 13.12C48.85 13.12 48.02 12.51 48.02 11.45C48.02 10.2 49.13 9.97 50.14 9.84C51.14 9.71 51.55 9.75 51.55 9.35L51.55 9.32C51.55 8.62 51.17 8.21 50.4 8.21C49.6 8.21 49.16 8.63 48.97 9.03L48.18 8.75C48.61 7.75 49.54 7.47 50.37 7.47C51.06 7.47 52.39 7.67 52.39 9.4L52.39 13L51.55 13L51.55 12.26L51.5 12.26ZM54.76 13L53.92 13L53.92 7.54L54.73 7.54L54.73 8.39L54.8 8.39C55.03 7.81 55.55 7.47 56.26 7.47C56.98 7.47 57.46 7.81 57.72 8.39L57.78 8.39C58.06 7.83 58.63 7.47 59.42 7.47C60.39 7.47 61.08 8.06 61.08 9.35L61.08 13L60.24 13L60.24 9.35C60.24 8.54 59.73 8.22 59.13 8.22C58.36 8.22 57.92 8.74 57.92 9.44L57.92 13L57.07 13L57.07 9.26C57.07 8.64 56.63 8.22 55.99 8.22C55.34 8.22 54.76 8.79 54.76 9.59L54.76 13ZM35.15 7.54L36.06 7.54L34.05 13L33.19 13L31.18 7.54L32.09 7.54L33.59 11.89L33.65 11.89L35.15 7.54ZM28.15 8.22C27.19 8.22 26.59 8.98 26.54 9.83L29.64 9.83C29.64 8.9 29.06 8.22 28.15 8.22ZM44.66 8.22C43.7 8.22 43.1 8.98 43.04 9.83L46.15 9.83C46.15 8.9 45.57 8.22 44.66 8.22ZM48.86 11.49C48.86 12.07 49.35 12.37 50.01 12.37C51.01 12.37 51.55 11.7 51.55 11.02L51.55 10.25C51.4 10.42 50.45 10.52 50.1 10.57C49.44 10.65 48.86 10.85 48.86 11.49Z" fill="#FFFFFF" fill-opacity="1.000000" fill-rule="evenodd"/>
	<g clip-path="url(#clip49_13893)">
		<path id="path" d="M5.46 4.38L5.46 4.35C5.75 4.05 6.21 4.04 6.52 4.33C6.82 4.62 6.83 5.09 6.53 5.39L6.51 5.39L5.46 4.38ZM6.49 13.33L6.52 13.33C6.82 13.62 6.83 14.09 6.53 14.39C6.24 14.69 5.78 14.7 5.47 14.41L5.47 14.38L6.49 13.33Z" fill="#000000" fill-opacity="0" fill-rule="nonzero"/>
		<path id="path" d="M6 4.87L1.5 9.53L6 13.87" stroke="#FFFFFF" stroke-opacity="1.000000" stroke-width="1.500000" stroke-linejoin="round" stroke-linecap="round"/>
		<path id="path" d="M11.48 5.39L11.46 5.39C11.16 5.09 11.17 4.62 11.47 4.33C11.78 4.04 12.24 4.05 12.53 4.35L12.53 4.38L11.48 5.39ZM12.52 14.38L12.52 14.41C12.21 14.7 11.75 14.69 11.46 14.39C11.16 14.09 11.17 13.62 11.47 13.33L11.5 13.33L12.52 14.38Z" fill="#000000" fill-opacity="0" fill-rule="nonzero"/>
		<path id="path" d="M12 4.87L16.5 9.53L12 13.87" stroke="#FFFFFF" stroke-opacity="1.000000" stroke-width="1.500000" stroke-linejoin="round" stroke-linecap="round"/>
		<path id="path" d="M8.59 16.6L8.61 16.62C8.54 17.04 8.15 17.31 7.74 17.23C7.33 17.16 7.06 16.78 7.13 16.37L7.15 16.35L8.59 16.6ZM9.77 1.39L9.76 1.37C9.83 0.95 10.21 0.68 10.62 0.76C11.04 0.83 11.31 1.21 11.23 1.62L11.21 1.64L9.77 1.39Z" fill="#000000" fill-opacity="0" fill-rule="nonzero"/>
		<path id="path" d="M7.87 16.5L10.5 1.5" stroke="#FFFFFF" stroke-opacity="1.000000" stroke-width="1.500000" stroke-linecap="round"/>
	</g>
</svg>
