<svg width="560" height="420" viewBox="0 0 560 420" fill="none" xmlns="http://www.w3.org/2000/svg">
<g style="mix-blend-mode:multiply">
<g style="mix-blend-mode:multiply">
<path d="M98.0068 66.1311L102.638 68.1904L97.9043 70.0361L95.8193 74.6674L93.9992 69.9506L89.3679 67.8913L94.1018 66.0456L96.1867 61.4058L98.0068 66.1311Z" fill="white" stroke="#3A3836" stroke-width="2" stroke-miterlimit="10"/>
<path d="M246.944 346.258L251.567 348.318L246.833 350.163L244.757 354.803L242.928 350.078L238.305 348.019L243.039 346.173L245.116 341.542L246.944 346.258Z" fill="white" stroke="#3A3836" stroke-width="2" stroke-miterlimit="10"/>
<path d="M535.881 134.191L540.504 136.25L535.77 138.104L533.694 142.736L531.865 138.01L527.242 135.951L531.968 134.105L534.052 129.474L535.881 134.191Z" fill="white" stroke="#3A3836" stroke-width="2" stroke-miterlimit="10"/>
<path d="M528.78 168.704H433.094C423.656 168.704 416.005 176.355 416.005 185.794V281.48C416.005 290.918 423.656 298.569 433.094 298.569H528.78C538.218 298.569 545.87 290.918 545.87 281.48V185.794C545.87 176.355 538.218 168.704 528.78 168.704Z" fill="#E6E6E6" stroke="#E6E6E6" stroke-width="2" stroke-miterlimit="10"/>
<path d="M31.2199 230.21H126.906C136.344 230.21 143.995 222.559 143.995 213.121V117.435C143.995 107.997 136.344 100.345 126.906 100.345H31.2199C21.7815 100.345 14.1302 107.997 14.1302 117.435V213.121C14.1302 222.559 21.7815 230.21 31.2199 230.21Z" fill="#E6E6E6" stroke="#E6E6E6" stroke-width="2" stroke-miterlimit="10"/>
<path d="M79.0627 196.894C77.6443 196.894 76.4993 198.039 76.4993 199.457C76.4993 236.756 95.7851 270.158 128.085 288.803C160.384 307.448 198.956 307.448 231.256 288.803L243.654 281.642C244.885 280.933 245.304 279.369 244.594 278.139C243.885 276.908 242.321 276.489 241.091 277.199L228.692 284.359C197.999 302.081 161.341 302.081 130.648 284.359C99.955 266.637 81.6262 234.893 81.6262 199.449C81.6262 198.03 80.4812 196.885 79.0627 196.885V196.894Z" fill="#E6E6E6" stroke="#E6E6E6" stroke-width="2" stroke-miterlimit="10"/>
<path d="M372.34 241.857V145.095C372.34 142.044 370.708 139.224 368.068 137.695L284.277 89.3137C281.636 87.7841 278.372 87.7841 275.732 89.3137L191.941 137.695C189.3 139.224 187.668 142.044 187.668 145.095V241.857C187.668 244.908 189.3 247.727 191.941 249.257L275.732 297.638C278.372 299.168 281.636 299.168 284.277 297.638L368.068 249.257C370.708 247.727 372.34 244.908 372.34 241.857Z" fill="#E6E6E6" stroke="#E6E6E6" stroke-width="2" stroke-miterlimit="10"/>
<path d="M380.33 96.124C362.608 96.124 344.894 100.79 328.744 110.112L316.346 117.273C315.115 117.982 314.697 119.546 315.406 120.776C316.115 121.998 317.679 122.425 318.909 121.716L331.308 114.555C362.001 96.8332 398.659 96.8332 429.352 114.555C460.045 132.277 478.374 164.022 478.374 199.466C478.374 200.884 479.519 202.029 480.937 202.029C482.356 202.029 483.501 200.884 483.501 199.466C483.501 162.167 464.215 128.765 431.915 110.121C415.765 100.798 398.043 96.1326 380.33 96.1326V96.124Z" fill="#E6E6E6" stroke="#E6E6E6" stroke-width="2" stroke-miterlimit="10"/>
<path d="M70.5178 205.439C69.0994 205.439 67.9543 206.584 67.9543 208.002C67.9543 245.301 87.2402 278.703 119.54 297.348C151.84 315.992 190.411 315.992 222.711 297.348L235.109 290.187C236.34 289.478 236.759 287.914 236.049 286.684C235.34 285.453 233.776 285.034 232.546 285.744L220.147 292.904C189.454 310.626 152.797 310.626 122.103 292.904C91.4101 275.182 73.0813 243.438 73.0813 207.994C73.0813 206.575 71.9363 205.43 70.5178 205.43V205.439Z" fill="#BDD8FC" stroke="#3A3836" stroke-width="2"/>
<path d="M388.875 104.669C371.153 104.669 353.439 109.334 337.289 118.657L324.891 125.818C323.66 126.527 323.241 128.09 323.951 129.321C324.66 130.543 326.224 130.97 327.454 130.261L339.853 123.1C370.546 105.378 407.204 105.378 437.897 123.1C468.59 140.822 486.919 172.567 486.919 208.011C486.919 209.429 488.064 210.574 489.482 210.574C490.901 210.574 492.046 209.429 492.046 208.011C492.046 170.712 472.76 137.31 440.46 118.665C424.31 109.343 406.588 104.677 388.875 104.677V104.669Z" fill="#BDD8FC" stroke="#3A3836" stroke-width="2"/>
<path d="M489.482 205.439C490.901 205.439 492.046 206.584 492.046 208.002C492.046 245.301 472.76 278.703 440.46 297.348C408.161 315.992 369.589 315.992 337.289 297.348L324.891 290.187C323.66 289.478 323.241 287.914 323.951 286.684C324.66 285.453 326.224 285.034 327.454 285.744L339.853 292.904C370.546 310.626 407.204 310.626 437.897 292.904C468.59 275.182 486.919 243.438 486.919 207.994C486.919 206.575 488.064 205.43 489.482 205.43V205.439Z" fill="#F0FFFD" stroke="#E6E6E6" stroke-width="2" stroke-miterlimit="10"/>
<path d="M171.125 104.669C188.847 104.669 206.561 109.334 222.711 118.657L235.109 125.818C236.34 126.527 236.759 128.09 236.049 129.321C235.34 130.543 233.776 130.97 232.546 130.261L220.147 123.1C189.454 105.378 152.797 105.378 122.103 123.1C91.4101 140.822 73.0813 172.567 73.0813 208.011C73.0813 209.429 71.9363 210.574 70.5178 210.574C69.0994 210.574 67.9543 209.429 67.9543 208.011C67.9543 170.712 87.2402 137.31 119.54 118.665C135.69 109.343 153.412 104.677 171.125 104.677V104.669Z" fill="#F0FFFD" stroke="#E6E6E6" stroke-width="2" stroke-miterlimit="10"/>
<path d="M537.325 177.249H441.639C432.201 177.249 424.55 184.9 424.55 194.339V290.024C424.55 299.463 432.201 307.114 441.639 307.114H537.325C546.763 307.114 554.415 299.463 554.415 290.024V194.339C554.415 184.9 546.763 177.249 537.325 177.249Z" fill="#F0FFFD" stroke="#3A3836" stroke-width="2" stroke-linejoin="round"/>
<path d="M22.675 238.755H118.361C127.799 238.755 135.45 231.104 135.45 221.666V125.98C135.45 116.542 127.799 108.89 118.361 108.89H22.675C13.2366 108.89 5.58525 116.542 5.58525 125.98V221.666C5.58525 231.104 13.2366 238.755 22.675 238.755Z" fill="#F0FFFD" stroke="#3A3836" stroke-width="2" stroke-linejoin="round"/>
<path d="M448.868 224.271H530.088V243.805C530.088 247.223 527.31 250 523.893 250H455.063C451.645 250 448.868 247.223 448.868 243.805V224.271Z" fill="white" stroke="#3A3836" stroke-width="2" stroke-linecap="round" stroke-linejoin="round"/>
<path d="M448.868 255.204H530.088V274.737C530.088 278.155 527.31 280.932 523.893 280.932H455.063C451.645 280.932 448.868 278.155 448.868 274.737V255.204Z" fill="white" stroke="#3A3836" stroke-width="2" stroke-linecap="round" stroke-linejoin="round"/>
<path d="M448.868 219.067L459.994 203.43H518.962L530.088 219.067H448.868Z" fill="url(#paint0_linear_4309_27607)" stroke="#3A3836" stroke-width="2" stroke-linecap="round" stroke-linejoin="round"/>
<path d="M460.643 239.404V250" stroke="#3A3836" stroke-width="2" stroke-linecap="round" stroke-linejoin="round"/>
<path d="M460.643 270.345V280.932" stroke="#3A3836" stroke-width="2" stroke-linecap="round" stroke-linejoin="round"/>
<path d="M472.41 239.404V250" stroke="#3A3836" stroke-width="2" stroke-linecap="round" stroke-linejoin="round"/>
<path d="M472.41 270.345V280.932" stroke="#3A3836" stroke-width="2" stroke-linecap="round" stroke-linejoin="round"/>
<path d="M484.184 239.404V250" stroke="#3A3836" stroke-width="2" stroke-linecap="round" stroke-linejoin="round"/>
<path d="M484.184 270.345V280.932" stroke="#3A3836" stroke-width="2" stroke-linecap="round" stroke-linejoin="round"/>
<path d="M515.544 239.661C517.866 239.661 519.748 237.778 519.748 235.457C519.748 233.135 517.866 231.252 515.544 231.252C513.222 231.252 511.34 233.135 511.34 235.457C511.34 237.778 513.222 239.661 515.544 239.661Z" fill="#3A3836"/>
<path d="M515.544 270.593C517.866 270.593 519.748 268.711 519.748 266.389C519.748 264.067 517.866 262.185 515.544 262.185C513.222 262.185 511.34 264.067 511.34 266.389C511.34 268.711 513.222 270.593 515.544 270.593Z" fill="#3A3836"/>
<path d="M105.603 134.123H30.9465C29.1863 134.123 27.7593 135.404 27.7593 136.977V200.798C27.7593 202.371 29.1863 203.652 30.9465 203.652H105.603C107.363 203.652 108.79 202.371 108.79 200.798V136.977C108.79 135.404 107.363 134.123 105.603 134.123Z" fill="white" stroke="#3A3836" stroke-width="2" stroke-linecap="round" stroke-linejoin="round"/>
<path d="M108.79 136.977V146.214H27.7593V136.977C27.7593 135.405 29.1948 134.114 30.9465 134.114H105.612C107.363 134.114 108.79 135.396 108.79 136.977Z" fill="url(#paint1_linear_4309_27607)" stroke="#3A3836" stroke-width="2"/>
<path d="M35.1164 142.035C36.1418 142.035 36.9792 141.215 36.9792 140.172C36.9792 139.13 36.1589 138.31 35.1164 138.31C34.074 138.31 33.2537 139.13 33.2537 140.172C33.2537 141.215 34.074 142.035 35.1164 142.035Z" fill="#3A3836"/>
<path d="M42.1062 142.035C43.1316 142.035 43.969 141.215 43.969 140.172C43.969 139.13 43.1487 138.31 42.1062 138.31C41.0637 138.31 40.2434 139.13 40.2434 140.172C40.2434 141.215 41.0637 142.035 42.1062 142.035Z" fill="#3A3836"/>
<path d="M49.0959 142.035C50.1213 142.035 50.9587 141.215 50.9587 140.172C50.9587 139.13 50.1384 138.31 49.0959 138.31C48.0535 138.31 47.2332 139.13 47.2332 140.172C47.2332 141.215 48.0535 142.035 49.0959 142.035Z" fill="#3A3836"/>
<path d="M110.132 160.416H81.8826C80.1479 160.416 78.738 161.825 78.738 163.56V210.377C78.738 212.112 80.1479 213.522 81.8826 213.522H110.132C111.867 213.522 113.276 212.112 113.276 210.377V163.56C113.276 161.825 111.867 160.416 110.132 160.416Z" fill="white" stroke="#3A3836" stroke-width="2" stroke-linecap="round" stroke-linejoin="round"/>
<path d="M95.8791 209.352C96.6995 209.352 97.366 208.686 97.366 207.865C97.366 207.045 96.6995 206.378 95.8791 206.378C95.0588 206.378 94.3923 207.045 94.3923 207.865C94.3923 208.686 95.0588 209.352 95.8791 209.352Z" fill="#3A3836" stroke="#3A3836" stroke-width="2" stroke-linecap="round" stroke-linejoin="round"/>
<path d="M109.218 165.577H82.5662V203.029H109.218V165.577Z" fill="url(#paint2_linear_4309_27607)" stroke="#3A3836" stroke-width="2" stroke-linecap="round" stroke-linejoin="round"/>
<path d="M109.218 165.577H82.5662V203.029H109.218V165.577Z" stroke="#3A3836" stroke-width="2" stroke-linecap="round" stroke-linejoin="round"/>
<path d="M187.66 159.621V256.383C187.66 259.434 189.292 262.254 191.932 263.783L275.723 312.164C278.364 313.694 281.628 313.694 284.268 312.164L368.059 263.783C370.7 262.254 372.332 259.434 372.332 256.383V159.621C372.332 156.571 370.7 153.751 368.059 152.221L284.268 103.84C281.628 102.31 278.364 102.31 275.723 103.84L191.932 152.221C189.292 153.751 187.66 156.571 187.66 159.621Z" fill="#ADCDFB"/>
<path d="M187.66 159.621V256.383C187.66 259.434 189.292 262.254 191.932 263.783L275.723 312.164C278.364 313.694 281.628 313.694 284.268 312.164L368.059 263.783C370.7 262.254 372.332 259.434 372.332 256.383V159.621C372.332 156.571 370.7 153.751 368.059 152.221L284.268 103.84C281.628 102.31 278.364 102.31 275.723 103.84L191.932 152.221C189.292 153.751 187.66 156.571 187.66 159.621Z" stroke="#3A3836" stroke-width="2" stroke-linecap="round" stroke-linejoin="round"/>
<path d="M241.014 244.42C239.399 244.147 238.023 243.42 237.083 242.096C234.93 239.071 236.391 234.329 240.475 230.859C232.845 215.932 232.759 200.619 240.117 185.554C235.998 182.367 234.306 177.591 236.493 174.463C237.818 172.524 240.467 171.635 243.534 172.156C245.312 172.455 247.175 173.267 248.978 174.403C249.866 175.053 250.593 175.677 251.293 176.454C270.126 170.31 289.267 170.208 308.245 176.061C308.869 175.335 309.646 174.634 310.595 173.959C313.432 171.942 316.559 171.139 319.148 171.575C320.763 171.848 322.139 172.575 323.079 173.899C325.232 176.924 323.737 181.829 319.524 185.11C327.155 200.038 327.266 215.188 319.909 230.253C324.19 233.466 325.882 238.242 323.668 241.532C322.344 243.472 319.695 244.36 316.627 243.839C314.85 243.54 312.987 242.728 311.184 241.592C310.296 240.942 309.407 240.293 308.869 239.541C290.036 245.685 270.895 245.787 251.917 239.934C251.293 240.66 250.516 241.361 249.567 242.036C246.927 243.916 243.765 244.882 241.014 244.42Z" fill="white"/>
<path d="M242.432 245.608C241.885 245.608 241.356 245.565 240.834 245.48C238.826 245.138 237.271 244.215 236.212 242.72C233.853 239.413 235.101 234.423 239.151 230.612C231.854 215.863 231.725 200.807 238.792 185.854C234.639 182.256 233.264 177.223 235.622 173.857C237.194 171.55 240.228 170.524 243.714 171.105C245.551 171.413 247.516 172.225 249.55 173.498C250.388 174.104 251.037 174.651 251.609 175.232C270.186 169.311 289.113 169.183 307.912 174.848C308.493 174.241 309.185 173.66 309.971 173.096C312.962 170.969 316.371 170.029 319.319 170.524C321.327 170.866 322.882 171.789 323.942 173.284C326.317 176.617 324.942 181.803 320.857 185.392C328.129 200.098 328.249 215.077 321.233 229.945C325.54 233.551 326.941 238.567 324.54 242.13C322.959 244.455 319.926 245.488 316.439 244.89C314.602 244.583 312.646 243.779 310.603 242.498C309.843 241.942 309.091 241.395 308.501 240.78C289.942 246.693 271.023 246.813 252.242 241.156C251.652 241.763 250.969 242.344 250.174 242.908C247.713 244.66 244.962 245.608 242.424 245.608H242.432ZM241.193 243.369C243.552 243.762 246.448 242.942 248.943 241.165C249.815 240.55 250.541 239.9 251.097 239.242C251.37 238.917 251.815 238.789 252.225 238.917C271.023 244.719 289.967 244.583 308.527 238.533C308.971 238.388 309.458 238.55 309.732 238.926C310.168 239.541 311.005 240.148 311.808 240.738C313.543 241.823 315.243 242.532 316.798 242.797C319.447 243.241 321.686 242.549 322.78 240.943C324.608 238.225 323.104 234.004 319.268 231.125C318.858 230.817 318.721 230.261 318.952 229.8C326.155 215.06 326.027 200.192 318.576 185.614C318.345 185.162 318.465 184.598 318.866 184.281C322.575 181.393 324.036 177.112 322.207 174.532C321.49 173.515 320.396 172.883 318.969 172.643C316.576 172.242 313.748 173.045 311.21 174.848C310.338 175.472 309.612 176.113 309.057 176.77C308.783 177.095 308.339 177.223 307.929 177.095C289.13 171.293 270.186 171.43 251.627 177.48C251.225 177.608 250.781 177.488 250.499 177.172C249.9 176.497 249.26 175.933 248.354 175.267C246.619 174.181 244.919 173.472 243.364 173.207C240.715 172.763 238.476 173.455 237.382 175.062C235.562 177.659 237.023 181.803 240.774 184.7C241.176 185.008 241.304 185.555 241.082 186.016C233.845 200.833 233.956 215.752 241.432 230.364C241.655 230.808 241.552 231.347 241.176 231.663C237.562 234.748 236.177 238.96 237.963 241.472C238.681 242.489 239.775 243.122 241.202 243.361L241.193 243.369Z" fill="#3A3836"/>
<path d="M280.371 233.235C272.587 233.235 264.777 232.005 257.01 229.552C256.446 229.373 256.138 228.775 256.309 228.211C256.489 227.647 257.087 227.339 257.651 227.51C273.16 232.406 288.797 232.278 304.126 227.134C304.682 226.946 305.288 227.245 305.476 227.809C305.664 228.365 305.365 228.971 304.801 229.159C296.718 231.868 288.557 233.227 280.371 233.227V233.235Z" fill="#E5E5E5"/>
<path d="M236.066 197.312L243.321 200.346L236.066 203.371L233.033 210.625L229.999 203.371L222.745 200.346L229.999 197.312L233.033 190.058L236.066 197.312Z" fill="#558FEA"/>
<path d="M250.55 189.408L251.729 192.228L252.9 189.408L255.711 188.238L252.9 187.067L251.729 184.247L250.55 187.067L247.739 188.238L250.55 189.408Z" fill="#558FEA"/>
<path d="M258.514 209.583H255.959V215.658H253.045V200.346H259.71C263.308 200.346 265.042 202.003 265.042 204.789C265.042 207.241 263.795 208.797 261.547 209.361L266.042 215.615V215.667H262.521L258.514 209.591V209.583ZM255.959 202.918V207.002H259.428C261.188 207.002 262.188 206.233 262.188 204.857C262.188 203.635 261.47 202.918 259.582 202.918H255.959Z" fill="#558FEA"/>
<path d="M268.725 200.346H279.722V203.106H271.63V206.549H279.005V209.258H271.63V212.907H279.748V215.667H268.725V200.354V200.346Z" fill="#558FEA"/>
<path d="M281.944 210.582L284.755 210.019C285.165 212.189 286.644 213.462 288.994 213.462C290.959 213.462 291.984 212.693 291.984 211.471C291.984 210.249 291.087 209.583 288.207 209.147C283.969 208.48 282.619 206.771 282.619 204.447C282.619 201.739 284.61 200.004 288.336 200.004C292.369 200.004 294.001 202.174 294.591 204.986L291.728 205.575C291.241 203.559 290.378 202.49 288.207 202.49C286.499 202.49 285.55 203.26 285.55 204.405C285.55 205.421 286.114 206.165 289.481 206.729C293.796 207.421 294.941 209.207 294.941 211.377C294.941 214.137 293.027 216 288.814 216C284.166 215.974 282.303 213.548 281.944 210.591V210.582Z" fill="#558FEA"/>
<path d="M296.393 200.346H308.749V203.106H304.024V215.667H301.119V203.106H296.393V200.346Z" fill="#558FEA"/>
</g>
</g>
<defs>
<linearGradient id="paint0_linear_4309_27607" x1="464.13" y1="242.164" x2="514.826" y2="191.459" gradientUnits="userSpaceOnUse">
<stop stop-color="#FF6D37"/>
<stop offset="1" stop-color="#F7AC3B"/>
</linearGradient>
<linearGradient id="paint1_linear_4309_27607" x1="27.7593" y1="140.164" x2="108.79" y2="140.164" gradientUnits="userSpaceOnUse">
<stop stop-color="#FF6D37"/>
<stop offset="1" stop-color="#F6AB3B"/>
</linearGradient>
<linearGradient id="paint2_linear_4309_27607" x1="79.8574" y1="200.337" x2="111.918" y2="168.285" gradientUnits="userSpaceOnUse">
<stop stop-color="#FF6D37"/>
<stop offset="1" stop-color="#F7AC3B"/>
</linearGradient>
</defs>
</svg>
